<svg width="24" height="24" viewBox="0 0 24 24" fill="none" xmlns="http://www.w3.org/2000/svg">
<path fill-rule="evenodd" clip-rule="evenodd" d="M14.6306 8.73729C14.7274 8.9422 14.9352 9.07028 15.16 9.06743H15.1942L21.0968 8.72591C21.3842 8.71452 21.6176 8.48969 21.6404 8.20224L21.999 2.59558C22.0132 2.36221 21.8766 2.14306 21.6603 2.04914C21.4412 1.95523 21.1879 1.99792 21.0143 2.16014L18.4016 4.64756C16.5972 3.24732 14.3745 2.49028 12.092 2.49312C6.52517 2.49312 2 6.86746 2 12.2464C2 17.6254 6.52517 21.9997 12.0891 21.9997C16.2785 21.9997 20.0779 19.4497 21.5436 15.6531C21.7058 15.2234 21.4867 14.7452 21.057 14.583L21.0313 14.5745C20.5874 14.4094 20.0922 14.6286 19.9129 15.0668C18.7004 18.2088 15.5556 20.3206 12.0891 20.3206C7.48428 20.3234 3.73892 16.7005 3.73892 12.2464C3.73892 7.79241 7.48428 4.16943 12.0891 4.16943C13.9362 4.16943 15.7064 4.75286 17.1579 5.82581L14.7502 8.11117C14.5794 8.27054 14.531 8.52384 14.6306 8.73729Z" fill="currentColor"/>
</svg>
