<svg viewBox="0 0 24 24" fill="none" xmlns="http://www.w3.org/2000/svg">
<path fill-rule="evenodd" clip-rule="evenodd" d="M21.6541 2.04708C21.4321 1.95601 21.1732 1.9987 20.9967 2.1609L18.134 4.87569C16.3782 3.53253 14.2012 2.80972 11.9617 2.8268C6.92479 2.81826 2.67902 6.44082 2.07289 11.2614C1.46676 16.082 4.69946 20.5782 9.5912 21.725C14.4829 22.8718 19.4942 20.3107 21.2557 15.7605C21.3667 15.4702 21.2158 15.1458 20.9142 15.0348C20.7691 14.9807 20.604 14.9836 20.4617 15.0462C20.3195 15.1088 20.2056 15.2226 20.1516 15.3649C18.8226 18.7769 15.3736 20.9823 11.5974 20.8343C7.82118 20.6863 4.56856 18.2163 3.53557 14.7132C2.49974 11.2074 3.91405 7.45673 7.04146 5.41353C10.1689 3.37032 14.3065 3.48984 17.3002 5.71517L14.6594 8.22792C14.4858 8.38728 14.4317 8.63485 14.5228 8.84828C14.6138 9.0617 14.8301 9.20114 15.0692 9.20114L21.0793 8.83974C21.3752 8.82267 21.6142 8.59501 21.6313 8.3076L21.9956 2.65036C22.0269 2.3971 21.8903 2.15521 21.6541 2.04708Z" fill="currentColor"/>
</svg>
