<svg viewBox="0 0 24 24" fill="none" xmlns="http://www.w3.org/2000/svg">
<path d="M21.0003 10.2381H19.1176C18.9895 9.44338 18.7673 8.72269 18.454 8.09315L19.8468 6.70019C20.2398 6.30423 20.2398 5.66614 19.8468 5.27019L18.7274 4.15354C18.3315 3.76043 17.6935 3.76043 17.2976 4.15354L15.9049 5.5465C15.2412 5.22176 14.5577 5.01097 13.7602 4.88278V2.99701C13.7602 2.44723 13.313 2 12.7633 2H11.2338C10.6841 2 10.237 2.44723 10.237 2.99701V4.88278C9.44232 5.01097 8.72173 5.23316 8.09228 5.5465L6.69952 4.15354C6.30362 3.76043 5.66562 3.76043 5.26972 4.15354L4.15323 5.27019C3.76018 5.66614 3.76018 6.30423 4.15323 6.70019L5.54315 8.0903C5.2213 8.66002 4.9906 9.58012 4.88237 10.2381H2.99687C2.44717 10.2381 2 10.6854 2 11.2352V12.7648C2 13.3146 2.44717 13.7619 2.99687 13.7619H4.88237C4.9906 14.4227 5.2213 15.34 5.54315 15.9097L4.15323 17.2998C3.76018 17.6958 3.76018 18.3339 4.15323 18.7298L5.26972 19.8465C5.66562 20.2396 6.30362 20.2396 6.69952 19.8465L8.09228 18.4535C8.72173 18.7668 9.44232 18.989 10.237 19.1172V21.003C10.237 21.5528 10.6841 22 11.2338 22H12.7633C13.313 22 13.7602 21.5528 13.7602 21.003V19.1172C14.5577 18.989 15.2412 18.7782 15.9049 18.4535L17.2976 19.8465C17.6935 20.2396 18.3315 20.2396 18.7274 19.8465L19.8439 18.7298C20.237 18.3339 20.237 17.6958 19.8439 17.2998L18.454 15.9097C18.7673 15.2802 18.9895 14.5595 19.1176 13.7647H21.0031C21.5528 13.7647 22 13.3175 22 12.7677V11.238C21.9972 10.6854 21.5528 10.2381 21.0003 10.2381ZM12 9.22404C13.894 9.22404 14.777 10.1071 14.777 12.0014C14.777 13.8957 13.894 14.7788 12 14.7788C10.106 14.7788 9.22301 13.8957 9.22301 12.0014C9.22301 10.1071 10.106 9.22404 12 9.22404Z" fill="currentColor"/>
</svg>
