<svg viewBox="0 0 24 24" fill="none" xmlns="http://www.w3.org/2000/svg">
<path d="M12 15.9183C9.47369 15.9183 8.08377 14.5282 8.08377 12.0015C8.08377 9.47475 9.47369 8.08464 12 8.08464C14.5264 8.08464 15.9163 9.47475 15.9163 12.0015C15.9163 14.5282 14.5235 15.9183 12 15.9183ZM12 9.22407C10.106 9.22407 9.22305 10.1071 9.22305 12.0015C9.22305 13.8958 10.106 14.7788 12 14.7788C13.8941 14.7788 14.777 13.8958 14.777 12.0015C14.777 10.1071 13.8941 9.22407 12 9.22407Z" fill="currentColor"/>
<path d="M12.7633 22H11.2338C10.6841 22 10.237 21.5528 10.237 21.003V19.1172C9.44232 18.989 8.72173 18.7668 8.09228 18.4535L6.69952 19.8465C6.30362 20.2396 5.66562 20.2396 5.26972 19.8465L4.15323 18.727C3.76018 18.331 3.76018 17.6929 4.15323 17.297L5.54315 15.9069C5.2213 15.3371 4.9906 14.417 4.88237 13.759H2.99687C2.44717 13.759 2 13.3118 2 12.762V11.2323C2 10.6825 2.44717 10.2353 2.99687 10.2353H4.88237C4.9906 9.57442 5.2213 8.65717 5.54315 8.08745L4.15323 6.69734C3.76018 6.30138 3.76018 5.6633 4.15323 5.26734L5.26972 4.15069C5.66562 3.75758 6.30362 3.75758 6.69952 4.15069L8.09228 5.54365C8.72173 5.23031 9.44232 5.00812 10.237 4.87993V2.99701C10.237 2.44723 10.6841 2 11.2338 2H12.7633C13.313 2 13.7602 2.44723 13.7602 2.99701V4.88278C14.5577 5.01097 15.2412 5.22176 15.9049 5.5465L17.2976 4.15354C17.6935 3.76043 18.3315 3.76043 18.7274 4.15354L19.8439 5.27019C20.237 5.66614 20.237 6.30423 19.8439 6.70019L18.454 8.09315C18.7673 8.72269 18.9895 9.44338 19.1176 10.2381H21.0031C21.5528 10.2381 22 10.6854 22 11.2352V12.7648C22 13.3146 21.5528 13.7619 21.0031 13.7619H19.1176C18.9895 14.5566 18.7673 15.2773 18.454 15.9069L19.8468 17.2998C20.2398 17.6958 20.2398 18.3339 19.8468 18.7298L18.7303 19.8465C18.3344 20.2396 17.6964 20.2396 17.3005 19.8465L15.9049 18.4535C15.2412 18.7782 14.5577 18.989 13.7602 19.1172V21.003C13.7602 21.5556 13.3159 22 12.7633 22ZM11.3762 20.8606H12.6209V19.0061C12.6209 18.5048 13.0026 18.0803 13.5295 18.0006H13.5323C14.2501 17.8895 14.8539 17.7043 15.4349 17.4166C15.8593 17.2058 16.3349 17.2713 16.6482 17.5847L18.0154 18.952L18.9524 18.0148L17.5853 16.6475C17.272 16.3341 17.2065 15.8442 17.4201 15.4283C17.6964 14.8814 17.8901 14.2433 18.0011 13.5283C18.0809 13.0013 18.5053 12.6196 19.0066 12.6196H20.8607V11.3747H19.0066C18.5053 11.3747 18.0809 10.993 18.0011 10.466C17.8901 9.75103 17.6964 9.11295 17.4201 8.56886C17.2065 8.15297 17.272 7.66301 17.5853 7.34967L18.9524 5.98234L18.0154 5.04515L16.6568 6.40678L16.6482 6.41533C16.3349 6.72867 15.8593 6.79419 15.4349 6.58339C14.8539 6.29568 14.2501 6.11053 13.5323 5.99943H13.5295C13.0026 5.91967 12.6209 5.49523 12.6209 4.99388V3.13944H11.3762V4.99388C11.3762 5.49523 10.9946 5.91967 10.4677 5.99943C9.75278 6.11053 9.11478 6.30423 8.57078 6.58054C8.15494 6.79704 7.66505 6.72867 7.35175 6.41533L5.98462 5.048L5.04756 5.98519L6.4147 7.35251C6.78781 7.72568 6.76787 8.26976 6.55711 8.61159C6.34919 8.95058 6.11279 9.73394 5.99886 10.4717C5.91911 10.9873 5.48619 11.3776 4.99345 11.3776H3.13928V12.6224H4.99345C5.48619 12.6224 5.91911 13.0127 5.99886 13.5283C6.11279 14.2661 6.34919 15.0494 6.55711 15.3884C6.76787 15.7331 6.78781 16.2743 6.4147 16.6475L5.04756 18.0148L5.98462 18.952L7.35175 17.5847C7.66505 17.2713 8.15494 17.2058 8.57078 17.4195C9.11763 17.6958 9.75563 17.8895 10.4705 18.0006C10.9974 18.0803 11.3791 18.5048 11.3791 19.0061L11.3762 20.8606Z" fill="currentColor"/>
</svg>
