<svg viewBox="0 0 24 24" width="3em" height="3em" fill="none" xmlns="http://www.w3.org/2000/svg">
<path d="M12 15.7318C10.8137 15.7318 9.89189 15.4217 9.26031 14.8128C8.60313 14.1783 8.27027 13.2336 8.27027 11.9987C8.27027 10.7638 8.60313 9.81919 9.26031 9.18467C9.89473 8.57577 10.8165 8.26563 12 8.26563C13.1835 8.26563 14.1081 8.57577 14.7397 9.18467C15.3969 9.81919 15.7297 10.7638 15.7297 11.9987C15.7297 13.2336 15.3969 14.1783 14.7397 14.8128C14.1053 15.4245 13.1835 15.7318 12 15.7318ZM12 8.83754C10.9673 8.83754 10.1764 9.09362 9.65291 9.59725C9.11237 10.1208 8.83641 10.9289 8.83641 12.0016C8.83641 13.0743 9.11237 13.8824 9.65291 14.4059C10.1764 14.9095 10.9644 15.1656 12 15.1656C13.0356 15.1656 13.8236 14.9095 14.3471 14.4059C14.8876 13.8824 15.1636 13.0743 15.1636 12.0016C15.1636 10.9289 14.8905 10.1208 14.3471 9.6001C13.8208 9.09362 13.0327 8.83754 12 8.83754Z" fill="currentColor"/>
<path d="M12.7881 22H11.2119C10.8108 22 10.4865 21.6756 10.4865 21.2744V19.2172C10.4865 19.1262 10.3869 19.0579 10.2902 19.0437C9.4623 18.9156 8.71693 18.6852 8.07112 18.3608L8.06828 18.3579C7.99431 18.3181 7.89189 18.3067 7.8293 18.3665L7.82646 18.3693L6.32432 19.8745C6.03414 20.1619 5.56757 20.1619 5.28023 19.8745L4.12802 18.7222C3.84068 18.4319 3.84068 17.9653 4.12802 17.6779L5.63016 16.1756L5.63585 16.1727C5.70413 16.0987 5.67852 15.9906 5.65292 15.9508C5.42247 15.5752 5.11807 14.7387 4.95875 13.7115C4.94452 13.6204 4.87055 13.518 4.78805 13.5152H2.72546C2.32432 13.5123 2 13.1879 2 12.7896V11.2133C2 10.8121 2.32432 10.4877 2.72546 10.4877H4.78521C4.86771 10.4848 4.94168 10.3824 4.9559 10.2914C5.0697 9.55157 5.33144 8.57277 5.65007 8.05207C5.67283 8.01223 5.70128 7.90411 5.633 7.83013L4.12802 6.32494C3.84068 6.03471 3.84068 5.56808 4.12802 5.28069L5.28023 4.12833C5.57041 3.84094 6.03698 3.84094 6.32432 4.12833L7.8293 5.63352C7.89189 5.69327 7.99431 5.67904 8.06828 5.64205L8.07112 5.63921C8.71693 5.31484 9.4623 5.08436 10.2902 4.95632C10.3869 4.9421 10.4865 4.87096 10.4865 4.78276V2.72557C10.4865 2.32437 10.8108 2.00285 11.2119 2H12.7881C13.1892 2 13.5135 2.32437 13.5135 2.72557V4.78845C13.5164 4.87665 13.6131 4.9421 13.7098 4.95917H13.7127C14.5434 5.08721 15.2461 5.30346 15.926 5.64205C15.9744 5.66482 16.091 5.71034 16.1707 5.63636L17.6757 4.13117C17.9659 3.84379 18.4324 3.84379 18.7198 4.13117L19.872 5.28354C20.1593 5.57377 20.1593 6.0404 19.872 6.32779L18.367 7.83298C18.3101 7.89558 18.3215 7.99801 18.3585 8.07199L18.3613 8.07483C18.6885 8.72073 18.9161 9.46621 19.0441 10.2942C19.0583 10.391 19.1294 10.4905 19.2176 10.4905H21.2745C21.6757 10.4905 22 10.8149 22 11.2161V12.7924C22 13.1936 21.6757 13.518 21.2745 13.518H19.2176C19.1266 13.518 19.0583 13.6176 19.0441 13.7143C18.9161 14.5423 18.6856 15.2878 18.3613 15.9337L18.3585 15.9365C18.3186 16.0105 18.3073 16.113 18.367 16.1756L19.872 17.6808C20.1593 17.971 20.1593 18.4376 19.872 18.725L18.7198 19.8774C18.4296 20.1647 17.963 20.1647 17.6757 19.8774L16.1735 18.375L16.1707 18.3693C16.091 18.2953 15.9744 18.3409 15.926 18.3636C15.2461 18.6994 14.5434 18.9185 13.7127 19.0465H13.7098C13.6159 19.0607 13.5164 19.129 13.5135 19.2172V21.2801C13.5107 21.6785 13.1863 22 12.7881 22ZM8.33001 17.8543C8.92176 18.1531 9.61024 18.3636 10.3784 18.4831C10.771 18.5429 11.0583 18.853 11.0583 19.2201V21.2773C11.0583 21.3626 11.1294 21.4309 11.2148 21.4338H12.7909C12.8762 21.4338 12.9445 21.3626 12.9474 21.2773V19.2201C12.9474 18.8559 13.2319 18.5457 13.6216 18.4831H13.6245C14.3954 18.3636 15.0469 18.1645 15.6757 17.8543C15.9289 17.7291 16.3016 17.6921 16.5775 17.971L16.5832 17.9767L18.0797 19.4705C18.1451 19.5359 18.2532 19.5359 18.3215 19.4705L19.4737 18.3181C19.5391 18.2498 19.5391 18.1445 19.4737 18.0763L17.9716 16.5739C17.7411 16.3434 17.6956 15.9792 17.8578 15.6691C18.1565 15.0773 18.367 14.3887 18.4865 13.6204C18.5462 13.2278 18.8563 12.9404 19.2233 12.9404H21.2802C21.3656 12.9404 21.4339 12.8693 21.4367 12.7839V11.2076C21.4367 11.1222 21.3656 11.0539 21.2802 11.0511H19.2233C18.8563 11.0511 18.5462 10.7665 18.4865 10.371C18.367 9.60279 18.1565 8.91421 17.8578 8.32238C17.6956 8.00939 17.7411 7.64803 17.9716 7.41756L17.9772 7.41186L19.4737 5.91805C19.5391 5.84977 19.5391 5.74449 19.4737 5.6762L18.3215 4.52383C18.256 4.45839 18.1479 4.45839 18.0797 4.52383L16.5775 6.02618C16.3016 6.30502 15.9289 6.26803 15.6757 6.14284C15.0498 5.83269 14.3954 5.63352 13.6245 5.51401H13.6216C13.229 5.45142 12.9474 5.14412 12.9474 4.77707V2.71987C12.9474 2.63451 12.8762 2.56623 12.7909 2.56338H11.2148C11.1294 2.56338 11.0612 2.63451 11.0583 2.71987V4.77707C11.0583 5.14412 10.7738 5.45426 10.3784 5.51401C9.61024 5.63352 8.92176 5.84407 8.33001 6.14284C8.01707 6.30502 7.65292 6.2595 7.42532 6.02902L5.92603 4.52668C5.8606 4.46123 5.75249 4.46123 5.68421 4.52668L4.53201 5.67904C4.46657 5.74733 4.46657 5.85261 4.53201 5.9209L6.03414 7.42325C6.30725 7.6964 6.29303 8.09475 6.13656 8.34799C5.89758 8.73496 5.64438 9.56864 5.5192 10.3767C5.46799 10.7039 5.19203 11.0539 4.78236 11.0539H2.72546C2.64011 11.0539 2.57184 11.1251 2.56899 11.2104V12.7867C2.56899 12.8721 2.64011 12.9404 2.72546 12.9432H4.78236C5.08962 12.9432 5.45092 13.1822 5.5192 13.6204C5.64438 14.4285 5.89758 15.265 6.13656 15.6492C6.29303 15.9024 6.30725 16.3008 6.03414 16.5739L4.53201 18.0763C4.46657 18.1445 4.46657 18.2498 4.53201 18.3181L5.68421 19.4705C5.74964 19.5359 5.85775 19.5359 5.92603 19.4705L7.42817 17.9681C7.65292 17.7377 8.01707 17.6921 8.33001 17.8543Z" fill="CurrentColor"/>
</svg>
