<svg width="42" height="32" viewBox="0 0 42 32" fill="none" xmlns="http://www.w3.org/2000/svg">
<path d="M7.89527 3.59941C5.94876 3.63094 2.35763 4.5917 0.716705 11.3022C0.00181094 14.2252 -0.274145 17.2744 0.337033 20.9004C0.90191 24.2464 1.90017 27.1342 2.57432 28.7256C2.80582 29.2746 3.16698 29.8459 3.44478 30.1983C4.24302 31.2109 5.57465 31.146 6.13397 30.8697C6.7433 30.5692 7.44337 29.844 7.19149 28.1859C7.06926 27.3846 6.71551 26.2143 6.51734 25.5633C5.90617 23.5657 5.09311 21.1564 5.02274 19.4389C4.92828 17.1427 5.83208 16.8423 6.43215 16.7087C7.44152 16.4862 8.28791 17.5971 9.0917 18.9882C10.0511 20.6482 11.6975 23.5917 13.0384 25.8396C14.2497 27.8687 16.4851 30.0406 20.0744 29.8922C23.7341 29.7401 26.4325 28.3417 27.8215 23.9385C28.8605 20.6445 29.5699 18.1832 30.7108 15.6626C32.022 12.7637 33.7722 11.2131 35.2464 11.6861C36.6151 12.1257 36.9559 13.4648 36.9726 15.4327C36.9874 17.1743 36.7855 19.0939 36.6299 20.5035C36.5725 21.0154 36.4706 22.0448 36.5132 22.6161C36.5966 23.74 37.0818 24.8622 38.3449 25.0402C39.6914 25.2313 40.7711 24.1555 41.2026 22.8535C41.373 22.3397 41.5175 21.5552 41.5953 20.9987C41.9916 18.1851 42.0935 16.2933 41.9157 13.4147C41.7064 10.0483 41.0489 6.97875 39.9007 4.32276C38.8024 1.78177 37.0392 0.153303 34.7779 0.010488C32.2739 -0.14902 29.4013 1.51468 27.8938 4.74193C26.5047 7.71694 25.3935 10.7698 24.7194 12.3297C24.0359 13.9099 23.0303 14.8837 21.4857 15.0469C19.5966 15.2453 17.9686 13.8728 16.7759 11.9142C15.7369 10.2079 13.6774 6.95835 12.5754 5.86591C11.5401 4.84394 10.3585 3.56046 7.89527 3.59941Z" fill="#019DF4"/>
</svg>
