<svg width="24" height="24" viewBox="0 0 24 24" fill="none" xmlns="http://www.w3.org/2000/svg">
<path fill-rule="evenodd" clip-rule="evenodd" d="M12.4411 21.1605C14.4872 21.1235 21.1662 20.3523 21.1662 12.0256C21.1662 8.42003 19.934 5.81901 17.5009 4.29368C15.5145 3.04724 13.2721 2.86511 12.3984 2.84234C12.1736 2.83665 11.9146 2.83381 11.6642 2.83381H11.4792C10.6113 2.84234 8.38304 2.99032 6.42516 4.22254C4.04041 5.72225 2.83381 8.32897 2.83381 11.9687C2.83381 15.6141 4.05464 18.2265 6.46215 19.7462C8.43711 20.9898 10.6824 21.1548 11.5561 21.1662L11.8549 21.169C12.0598 21.1662 12.2647 21.1662 12.4411 21.1605ZM12.4183 2.00854C14.3762 2.05407 22 2.82812 22 12.0256C22 21.243 14.3677 21.9602 12.4582 21.9943C12.276 21.9972 12.0655 22 11.8549 22C11.7496 22 11.6443 22 11.5418 21.9972C9.53273 21.9687 2 21.243 2 11.9687C2 2.70575 9.46443 2.01707 11.4707 2H11.6642C11.9203 2 12.1878 2.00285 12.4183 2.00854ZM11.9972 15.3438C11.7666 15.3438 11.5817 15.1559 11.5817 14.9283V6.29425C11.5817 6.06375 11.7695 5.87877 11.9972 5.87877C12.2248 5.87877 12.4126 6.06659 12.4126 6.29425V14.9283C12.4126 15.1588 12.2248 15.3438 11.9972 15.3438ZM12 16.4052C12.3586 16.4052 12.6517 16.6955 12.6517 17.0569C12.6517 17.4155 12.3614 17.7086 12 17.7086C11.6414 17.7086 11.3483 17.4155 11.3483 17.0569C11.3512 16.6955 11.6414 16.4052 12 16.4052Z" fill="currentColor"/>
</svg>
