<svg width="24" height="24" viewBox="0 0 24 24" fill="none" xmlns="http://www.w3.org/2000/svg">
<path fill-rule="evenodd" clip-rule="evenodd" d="M12.0524 17.8281C11.6575 17.8281 11.337 17.5094 11.337 17.1138C11.337 16.7211 11.6575 16.3995 12.0524 16.3995C12.4473 16.3995 12.7678 16.7183 12.7678 17.1138C12.7678 17.5094 12.4473 17.8281 12.0524 17.8281ZM11.4229 6.29141C11.4229 5.94707 11.7033 5.66534 12.0524 5.66534C12.4015 5.66534 12.6819 5.94422 12.6819 6.29141V14.9254C12.6819 15.2698 12.4015 15.5515 12.0524 15.5515C11.7033 15.5515 11.4229 15.2726 11.4229 14.9254V6.29141ZM12.4759 2.01138C12.2412 2.00569 11.9694 2 11.709 2H11.523C9.50281 2.01707 2 2.70575 2 11.9659C2 21.2402 9.57434 21.9687 11.5946 21.9972C11.6976 22 11.8034 22 11.9093 22C12.1211 22 12.3328 21.9972 12.5159 21.9943C14.436 21.9602 22.1105 21.243 22.1105 12.0256C22.1105 2.83096 14.4446 2.05692 12.4759 2.01138Z" fill="currentColor"/>
</svg>
