<svg width="24" height="24" viewBox="0 0 24 24" fill="none" xmlns="http://www.w3.org/2000/svg">
<path fill-rule="evenodd" clip-rule="evenodd" d="M12.3763 20.7395C14.8635 20.694 20.6445 19.7522 20.6445 12.0242C20.6445 4.29336 14.8296 3.3174 12.3282 3.25765C12.1046 3.25196 11.8471 3.24911 11.5981 3.24911H11.4255C8.96373 3.27187 3.23938 4.16532 3.23938 11.9644C3.23938 19.7806 9.01749 20.7082 11.5019 20.7424L11.7934 20.7452C11.9999 20.7452 12.2008 20.7424 12.3763 20.7395ZM12.3593 2.01138C14.3089 2.05691 21.8867 2.83084 21.8867 12.027C21.8867 21.2431 14.2948 21.9573 12.3989 21.9943C12.2178 21.9972 12.0084 22 11.799 22C11.6943 22 11.5896 21.9972 11.4878 21.9972C9.49287 21.9659 2 21.2403 2 11.9673C2 2.70565 9.42213 2.01707 11.417 2H11.5981C11.8584 2 12.1273 2.00285 12.3593 2.01138ZM11.9405 15.5496C11.5981 15.5496 11.318 15.2707 11.318 14.9236V6.2908C11.318 5.94651 11.5953 5.66482 11.9405 5.66482C12.2857 5.66482 12.563 5.94366 12.563 6.2908V14.9236C12.5602 15.2679 12.2829 15.5496 11.9405 15.5496ZM11.9405 16.4003C12.331 16.4003 12.6479 16.719 12.6507 17.1117C12.6507 17.5043 12.3338 17.823 11.9433 17.8259H11.9405C11.55 17.8259 11.2331 17.5072 11.2331 17.1117C11.2331 16.719 11.55 16.4003 11.9405 16.4003Z" fill="currentColor"/>
</svg>
